<?xml version="1.0" encoding="utf-8"?>
<!-- Generator: Adobe Illustrator 16.0.3, SVG Export Plug-In . SVG Version: 6.00 Build 0)  -->
<!DOCTYPE svg PUBLIC "-//W3C//DTD SVG 1.1//EN" "http://www.w3.org/Graphics/SVG/1.1/DTD/svg11.dtd">
<svg version="1.1" xmlns="http://www.w3.org/2000/svg" xmlns:xlink="http://www.w3.org/1999/xlink" x="0px" y="0px"
	 width="164.75px" height="68.75px" viewBox="0 0 164.75 68.75" enable-background="new 0 0 164.75 68.75" xml:space="preserve">
<g id="Ebene_2">
	<rect fill="#FFFFFF" width="164.75" height="68.75"/>
</g>
<g id="Ebene_1">
	<g>
		<path d="M28.611,56.109h-0.916v-5.371h-0.021l-2.168,5.371h-0.817l-2.168-5.371h-0.022v5.371h-0.915v-7.518h1.035l2.517,6.167
			h0.022l2.505-6.167h0.948V56.109z"/>
		<path d="M32.488,53.201h0.436v-0.403c0-0.915-0.36-1.264-1.035-1.264c-0.632,0-1.068,0.294-1.296,0.479l-0.327-0.654
			c0.272-0.207,0.807-0.61,1.787-0.61c1.144,0,1.754,0.665,1.754,2.048v2.223c0,0.447,0.043,0.948,0.065,1.089h-0.85l-0.032-0.578
			h-0.022c-0.185,0.294-0.632,0.708-1.46,0.708c-0.861,0-1.417-0.61-1.417-1.493C30.091,53.669,31.126,53.201,32.488,53.201z
			 M32.924,54.965v-1.133l-0.501,0.021c-0.991,0.044-1.449,0.283-1.449,0.839c0,0.512,0.349,0.795,0.73,0.795
			C32.401,55.488,32.728,55.172,32.924,54.965z"/>
		<path d="M37.957,51.665c-0.065-0.033-0.196-0.098-0.479-0.098c-0.697,0-1.057,0.425-1.209,0.741v3.802h-0.882V50.88h0.817v0.773
			h0.021c0.164-0.381,0.512-0.872,1.329-0.872c0.218,0,0.349,0.033,0.479,0.076L37.957,51.665z"/>
		<path d="M41.105,53.233l2.168,2.876h-1.111l-1.787-2.44h-0.436v2.44h-0.882v-7.703l0.882-0.098v4.608h0.458l1.721-2.037h1.068
			L41.105,53.233z"/>
		<path d="M46.727,51.632h-1.351v2.702c0,0.817,0.207,1.122,0.784,1.122c0.284,0,0.501-0.098,0.61-0.152l0.087,0.708
			c-0.087,0.055-0.381,0.229-0.937,0.229c-1.024,0-1.427-0.588-1.427-1.787v-2.822h-0.719v-0.621l0.719-0.131l0.098-1.46h0.784v1.46
			h1.46L46.727,51.632z"/>
		<path d="M50.517,51.969c-0.185-0.152-0.577-0.458-1.155-0.458c-0.566,0-0.839,0.24-0.839,0.545c0,0.414,0.24,0.599,0.795,0.882
			l0.392,0.196c0.817,0.414,1.264,0.86,1.264,1.623c0,0.795-0.588,1.482-1.863,1.482c-0.872,0-1.329-0.338-1.569-0.556l0.327-0.773
			c0.229,0.229,0.61,0.544,1.242,0.544c0.665,0,1.002-0.25,1.002-0.588c0-0.501-0.327-0.686-0.915-1.002l-0.381-0.207
			c-0.752-0.403-1.122-0.839-1.122-1.558c0-0.773,0.697-1.351,1.688-1.351c0.839,0,1.242,0.349,1.427,0.501L50.517,51.969z"/>
		<path d="M54.701,51.632H53.35v2.702c0,0.817,0.207,1.122,0.785,1.122c0.283,0,0.501-0.098,0.61-0.152l0.087,0.708
			c-0.087,0.055-0.381,0.229-0.937,0.229c-1.024,0-1.427-0.588-1.427-1.787v-2.822h-0.719v-0.621l0.719-0.131l0.098-1.46h0.785v1.46
			h1.46L54.701,51.632z"/>
		<path d="M57.958,53.201h0.436v-0.403c0-0.915-0.36-1.264-1.035-1.264c-0.632,0-1.068,0.294-1.296,0.479l-0.327-0.654
			c0.272-0.207,0.807-0.61,1.787-0.61c1.144,0,1.754,0.665,1.754,2.048v2.223c0,0.447,0.043,0.948,0.065,1.089h-0.85l-0.033-0.578
			h-0.022c-0.185,0.294-0.632,0.708-1.46,0.708c-0.861,0-1.417-0.61-1.417-1.493C55.561,53.669,56.596,53.201,57.958,53.201z
			 M58.394,54.965v-1.133l-0.501,0.021c-0.991,0.044-1.449,0.283-1.449,0.839c0,0.512,0.349,0.795,0.73,0.795
			C57.871,55.488,58.197,55.172,58.394,54.965z"/>
		<path d="M64.025,56.109v-3.094c0-1.035-0.294-1.481-0.937-1.481c-0.741,0-1.155,0.359-1.351,0.566v4.009h-0.882V50.88h0.817v0.588
			h0.021c0.218-0.24,0.73-0.719,1.602-0.719c0.61,0,1.079,0.25,1.34,0.773c0.261-0.294,0.839-0.773,1.667-0.773
			c1.144,0,1.776,0.697,1.776,2.125v3.236h-0.882v-3.094c0-1.035-0.392-1.481-1.101-1.481c-0.621,0-1.035,0.349-1.264,0.566
			c0.055,0.229,0.076,0.479,0.076,0.773v3.236H64.025z"/>
		<path d="M72.816,56.109v-3.094c0-1.035-0.294-1.481-0.937-1.481c-0.741,0-1.155,0.359-1.351,0.566v4.009h-0.882V50.88h0.817v0.588
			h0.021c0.218-0.24,0.73-0.719,1.602-0.719c0.61,0,1.079,0.25,1.34,0.773c0.261-0.294,0.839-0.773,1.667-0.773
			c1.144,0,1.776,0.697,1.776,2.125v3.236h-0.882v-3.094c0-1.035-0.392-1.481-1.101-1.481c-0.621,0-1.035,0.349-1.264,0.566
			c0.055,0.229,0.076,0.479,0.076,0.773v3.236H72.816z"/>
		<path d="M80.714,50.782c0.458,0,0.774,0.098,0.981,0.186v-2.561l0.882-0.098v7.801H81.76v-0.588h-0.021
			c-0.142,0.196-0.501,0.719-1.558,0.719c-1.144,0-2.016-0.926-2.016-2.637C78.165,51.588,79.451,50.782,80.714,50.782z
			 M81.695,54.878v-3.051c-0.186-0.131-0.469-0.261-0.937-0.261c-1.013,0-1.678,0.556-1.678,1.972c0,1.406,0.643,1.917,1.427,1.917
			C81.216,55.456,81.542,55.063,81.695,54.878z"/>
		<path d="M86.249,53.201h0.436v-0.403c0-0.915-0.36-1.264-1.035-1.264c-0.632,0-1.068,0.294-1.296,0.479l-0.327-0.654
			c0.272-0.207,0.807-0.61,1.787-0.61c1.144,0,1.754,0.665,1.754,2.048v2.223c0,0.447,0.043,0.948,0.065,1.089h-0.85l-0.033-0.578
			h-0.022c-0.185,0.294-0.632,0.708-1.46,0.708c-0.861,0-1.417-0.61-1.417-1.493C83.852,53.669,84.887,53.201,86.249,53.201z
			 M86.685,54.965v-1.133l-0.501,0.021c-0.991,0.044-1.449,0.283-1.449,0.839c0,0.512,0.349,0.795,0.73,0.795
			C86.162,55.488,86.488,55.172,86.685,54.965z"/>
		<path d="M91.608,51.632h-1.351v2.702c0,0.817,0.207,1.122,0.784,1.122c0.284,0,0.501-0.098,0.61-0.152l0.087,0.708
			c-0.087,0.055-0.381,0.229-0.937,0.229c-1.024,0-1.427-0.588-1.427-1.787v-2.822h-0.719v-0.621l0.719-0.131l0.098-1.46h0.784v1.46
			h1.46L91.608,51.632z"/>
		<path d="M96.467,53.68h-3.04c0.065,1.209,0.643,1.776,1.591,1.776c0.828,0,1.231-0.359,1.373-0.49l0.261,0.632
			c-0.174,0.174-0.621,0.643-1.732,0.643c-1.482,0-2.375-0.861-2.375-2.811c0-1.83,1.079-2.68,2.266-2.68
			c1.079,0,1.754,0.73,1.754,2.048C96.565,53.146,96.521,53.429,96.467,53.68z M93.427,52.994h2.288
			c0.021-0.131,0.021-0.24,0.021-0.349c0-0.73-0.381-1.144-1.002-1.144C94.004,51.501,93.493,52.035,93.427,52.994z"/>
		<path d="M101.26,56.109v-3.094c0-1.002-0.305-1.481-1.046-1.481c-0.708,0-1.133,0.349-1.373,0.566v4.009h-0.882V50.88h0.817v0.588
			h0.021c0.207-0.229,0.719-0.719,1.624-0.719c1.111,0,1.721,0.697,1.721,2.125v3.236H101.26z"/>
		<path d="M106.282,51.665c-0.065-0.033-0.196-0.098-0.479-0.098c-0.697,0-1.057,0.425-1.209,0.741v3.802h-0.882V50.88h0.817v0.773
			h0.021c0.164-0.381,0.512-0.872,1.329-0.872c0.218,0,0.349,0.033,0.479,0.076L106.282,51.665z"/>
		<path d="M110.955,53.68h-3.04c0.065,1.209,0.643,1.776,1.591,1.776c0.828,0,1.231-0.359,1.373-0.49l0.261,0.632
			c-0.174,0.174-0.621,0.643-1.732,0.643c-1.482,0-2.375-0.861-2.375-2.811c0-1.83,1.079-2.68,2.266-2.68
			c1.079,0,1.754,0.73,1.754,2.048C111.053,53.146,111.01,53.429,110.955,53.68z M107.916,52.994h2.288
			c0.021-0.131,0.021-0.24,0.021-0.349c0-0.73-0.381-1.144-1.002-1.144C108.493,51.501,107.981,52.035,107.916,52.994z"/>
		<path d="M116.707,51.566h-0.795c0.186,0.272,0.294,0.599,0.294,0.948c0,1.111-0.882,1.765-2.048,1.765
			c-0.152,0-0.294-0.011-0.436-0.032c-0.174,0.076-0.436,0.229-0.436,0.512c0,0.218,0.164,0.371,0.556,0.371h1.068
			c1.1,0,1.732,0.458,1.732,1.384c0,0.991-0.948,1.906-2.767,1.906c-1.242,0-1.961-0.479-1.961-1.416
			c0-0.795,0.599-1.123,0.915-1.286v-0.022c-0.229-0.174-0.327-0.447-0.327-0.741c0-0.545,0.479-0.806,0.621-0.872v-0.022
			c-0.534-0.261-0.882-0.773-0.882-1.547c0-1.177,0.882-1.765,1.983-1.765c0.283,0,0.545,0.043,0.785,0.131h1.808L116.707,51.566z
			 M113.308,55.902c-0.272,0.164-0.545,0.425-0.545,0.926c0,0.588,0.392,0.839,1.177,0.839c1.274,0,1.819-0.49,1.819-1.024
			c0-0.501-0.261-0.697-0.85-0.697h-1.155C113.581,55.946,113.439,55.935,113.308,55.902z M114.234,51.479
			c-0.599,0-1.133,0.283-1.133,1.035c0,0.751,0.534,1.035,1.111,1.035c0.599,0,1.133-0.284,1.133-1.035
			C115.345,51.762,114.812,51.479,114.234,51.479z"/>
		<path d="M118.33,49.616c-0.349,0-0.621-0.24-0.621-0.621s0.272-0.632,0.621-0.632s0.632,0.25,0.632,0.632
			S118.679,49.616,118.33,49.616z M118.766,56.109h-0.882V50.88h0.882V56.109z"/>
		<path d="M122.971,51.969c-0.186-0.152-0.578-0.458-1.155-0.458c-0.566,0-0.839,0.24-0.839,0.545c0,0.414,0.24,0.599,0.795,0.882
			l0.392,0.196c0.817,0.414,1.264,0.86,1.264,1.623c0,0.795-0.588,1.482-1.863,1.482c-0.872,0-1.329-0.338-1.569-0.556l0.327-0.773
			c0.229,0.229,0.61,0.544,1.242,0.544c0.665,0,1.002-0.25,1.002-0.588c0-0.501-0.327-0.686-0.915-1.002l-0.381-0.207
			c-0.752-0.403-1.122-0.839-1.122-1.558c0-0.773,0.697-1.351,1.688-1.351c0.839,0,1.242,0.349,1.427,0.501L122.971,51.969z"/>
		<path d="M127.154,51.632h-1.351v2.702c0,0.817,0.207,1.122,0.784,1.122c0.284,0,0.501-0.098,0.61-0.152l0.087,0.708
			c-0.087,0.055-0.381,0.229-0.937,0.229c-1.024,0-1.427-0.588-1.427-1.787v-2.822h-0.719v-0.621l0.719-0.131l0.098-1.46h0.784v1.46
			h1.46L127.154,51.632z"/>
		<path d="M132.013,53.68h-3.04c0.065,1.209,0.643,1.776,1.591,1.776c0.828,0,1.231-0.359,1.373-0.49l0.261,0.632
			c-0.174,0.174-0.621,0.643-1.732,0.643c-1.482,0-2.375-0.861-2.375-2.811c0-1.83,1.079-2.68,2.266-2.68
			c1.079,0,1.754,0.73,1.754,2.048C132.111,53.146,132.067,53.429,132.013,53.68z M128.973,52.994h2.288
			c0.021-0.131,0.021-0.24,0.021-0.349c0-0.73-0.381-1.144-1.002-1.144C129.55,51.501,129.039,52.035,128.973,52.994z"/>
		<path d="M136.076,51.665c-0.065-0.033-0.196-0.098-0.479-0.098c-0.697,0-1.057,0.425-1.209,0.741v3.802h-0.882V50.88h0.817v0.773
			h0.021c0.164-0.381,0.512-0.872,1.329-0.872c0.218,0,0.349,0.033,0.479,0.076L136.076,51.665z"/>
	</g>
	<g>
		<path fill="#6B98C8" d="M39.801,40.395h-3.382V29.568h-0.052l-4.352,10.827h-2.464l-4.352-10.827h-0.052v10.827h-3.382V22.307
			h3.854l5.269,13.186h0.053l5.321-13.186h3.539V40.395z"/>
		<path fill="#6B98C8" d="M48.71,33.002h0.524v-0.446c0-1.651-0.708-2.49-2.149-2.49c-1.573,0-2.569,0.813-3.015,1.232l-1.022-2.097
			c0.603-0.629,2.097-1.887,4.719-1.887c2.988,0,4.666,1.678,4.666,5.348v4.299c0,1.468,0.105,2.622,0.21,3.434h-3.041
			c-0.026-0.367-0.079-0.917-0.079-1.416H49.47c-0.446,0.787-1.232,1.73-3.041,1.73c-2.097,0-3.565-1.521-3.565-3.827
			C42.864,34.208,45.433,33.002,48.71,33.002z M49.234,37.354v-2.359l-0.655,0.026c-1.704,0.079-2.595,0.524-2.595,1.547
			c0,0.917,0.603,1.573,1.39,1.573C48.316,38.141,48.867,37.748,49.234,37.354z"/>
		<path fill="#6B98C8" d="M64.332,26.187c-0.419-0.341-1.495-1.258-3.225-1.258c-1.678,0-2.438,0.734-2.438,1.625
			c0,1.127,0.524,1.678,1.992,2.569l1.966,1.206c2.464,1.521,3.539,2.962,3.539,5.269c0,2.517-1.783,5.112-6.161,5.112
			c-2.91,0-4.43-1.258-5.033-1.756l1.153-2.936c0.603,0.603,1.94,1.704,3.828,1.704c1.861,0,2.726-0.787,2.726-1.678
			c0-1.206-0.524-1.835-1.914-2.752L58.8,31.98c-2.491-1.651-3.565-2.936-3.565-5.348c0-2.569,2.149-4.64,5.767-4.64
			c2.543,0,3.854,0.997,4.43,1.416L64.332,26.187z"/>
		<path fill="#6B98C8" d="M75.497,30.25h-2.936v5.164c0,1.861,0.498,2.464,1.704,2.464c0.603,0,1.127-0.157,1.337-0.236l0.236,2.438
			c-0.262,0.131-0.996,0.577-2.438,0.577c-2.857,0-4.142-1.311-4.142-4.928V30.25h-1.73v-2.254l1.73-0.314l0.367-3.565h2.936v3.513
			h3.224L75.497,30.25z"/>
		<path fill="#6B98C8" d="M87.685,40.395l-3.854-6.606c-0.341,0.026-0.734,0.026-1.101,0.026h-0.655v6.58h-3.513V22.307h4.299
			c5.085,0,7.445,1.992,7.445,5.636c0,2.229-1.049,4.011-3.12,5.007l4.64,7.445H87.685z M82.861,25.19h-0.787v5.846h0.655
			c2.648,0,3.906-1.127,3.906-3.067C86.636,26.108,85.43,25.19,82.861,25.19z"/>
	</g>
	<g opacity="0.2">
		<g>
			<defs>
				<rect id="SVGID_1_" x="130.417" y="14.431" width="6.665" height="6.666"/>
			</defs>
			<clipPath id="SVGID_2_">
				<use xlink:href="#SVGID_1_"  overflow="visible"/>
			</clipPath>
			<rect x="130.417" y="14.431" clip-path="url(#SVGID_2_)" fill="#578EC2" width="6.666" height="6.666"/>
		</g>
	</g>
	<rect x="123.279" y="7.584" fill="#578EC2" width="6.666" height="6.667"/>
	<rect x="137.083" y="21.097" fill="#578EC2" width="6.666" height="6.667"/>
	<g opacity="0.6">
		<g>
			<defs>
				<rect id="SVGID_3_" x="117.796" y="27.765" width="6.668" height="6.666"/>
			</defs>
			<clipPath id="SVGID_4_">
				<use xlink:href="#SVGID_3_"  overflow="visible"/>
			</clipPath>
			<rect x="117.796" y="27.765" clip-path="url(#SVGID_4_)" fill="#8EADD5" width="6.668" height="6.666"/>
		</g>
	</g>
	<rect x="124.464" y="27.765" fill="#578EC2" width="6.666" height="6.666"/>
	<g opacity="0.8">
		<g>
			<defs>
				<rect id="SVGID_5_" x="100.667" y="34.47" width="6.666" height="6.667"/>
			</defs>
			<clipPath id="SVGID_6_">
				<use xlink:href="#SVGID_5_"  overflow="visible"/>
			</clipPath>
			<rect x="100.667" y="34.47" clip-path="url(#SVGID_6_)" fill="#578EC2" width="6.666" height="6.667"/>
		</g>
	</g>
</g>
</svg>
