<?xml version="1.0" encoding="UTF-8"?>
<!DOCTYPE svg PUBLIC "-//W3C//DTD SVG 1.1//EN" "http://www.w3.org/Graphics/SVG/1.1/DTD/svg11.dtd">
<!-- Creator: CorelDRAW X8 -->
<svg xmlns="http://www.w3.org/2000/svg" xml:space="preserve" width="52.951mm" height="9.9305mm" version="1.1" style="shape-rendering:geometricPrecision; text-rendering:geometricPrecision; image-rendering:optimizeQuality; fill-rule:evenodd; clip-rule:evenodd"
viewBox="0 0 4060 761"
 xmlns:xlink="http://www.w3.org/1999/xlink">
 <defs>
  <style type="text/css">
   <![CDATA[
    .fil0 {fill:#2D55C8}
    .fil2 {fill:#009664;fill-rule:nonzero}
    .fil1 {fill:#FF5000;fill-rule:nonzero}
   ]]>
  </style>
 </defs>
 <g id="Ebene_x0020_1">
  <metadata id="CorelCorpID_0Corel-Layer"/>
  <g id="_1691688866880">
   <path class="fil0" d="M3249 236c63,0 112,18 147,55 33,34 49,83 49,148 0,60 -16,108 -50,143 -35,37 -86,56 -150,56 -69,0 -121,-19 -156,-57 -30,-32 -45,-78 -45,-137 0,-62 17,-113 51,-151 33,-37 85,-56 154,-57zm-5 66c-38,0 -67,12 -88,35 -20,24 -31,58 -31,102 0,42 9,73 25,94 22,26 52,40 93,40 80,0 121,-44 121,-132 0,-45 -10,-79 -31,-103 -21,-24 -50,-36 -89,-36z"/>
   <path class="fil0" d="M2957 303l0 0 -94 0c-24,0 -44,2 -59,8 -14,6 -26,15 -35,29 -15,22 -23,55 -23,98 0,51 11,88 33,110 15,16 44,24 84,24l94 0 1 0c17,0 31,14 31,31 0,17 -14,31 -31,31l-1 0 0 0 -94 0c-41,0 -72,-4 -95,-11 -38,-11 -66,-39 -85,-82 -12,-30 -19,-62 -19,-97 0,-63 18,-114 52,-152 18,-19 38,-32 60,-40 22,-8 51,-12 87,-12l94 0 1 0c17,0 31,14 31,31 0,18 -14,32 -31,32l-1 0z"/>
   <path class="fil0" d="M1464 401l0 0c17,0 31,14 31,31 0,17 -14,31 -31,31l0 0 -205 0c0,36 9,63 27,82 10,10 22,17 36,21 13,4 34,6 60,6 38,0 44,0 82,0 17,0 31,14 31,31 0,17 -14,31 -31,31l0 0 -103 0c-34,0 -60,-3 -79,-8 -19,-5 -35,-14 -50,-28 -37,-33 -56,-84 -56,-153 0,-84 28,-143 85,-177 30,-19 70,-28 121,-28l82 0 0 0c17,0 31,14 31,31 0,18 -14,32 -31,32l0 0 -71 0c-27,0 -48,2 -63,6 -15,4 -28,11 -39,22 -16,16 -27,39 -32,70l205 0z"/>
   <path class="fil0" d="M3570 240l1 0 307 0c48,0 80,2 97,5 16,4 32,11 46,23 15,13 25,28 31,46 5,17 8,43 8,77l0 203 0 1 0 0 0 0 0 0c0,22 -18,39 -39,39 -22,0 -39,-17 -39,-39l0 0 0 0 0 0 0 -1 0 -203c0,-33 -7,-56 -20,-69 -13,-13 -37,-19 -69,-19l-61 0 0 292 0 0c0,22 -18,39 -39,39 -22,0 -39,-18 -39,-39l0 -2 0 -290 -146 0 0 292 0 0 0 0c0,22 -18,39 -39,39 -21,0 -39,-17 -39,-39l0 0 0 0 0 -1 0 -314 0 0c0,-22 18,-40 40,-40z"/>
   <circle class="fil0" cx="2082" cy="136" r="39"/>
   <path class="fil0" d="M2410 236c63,0 112,18 147,55 33,34 50,83 50,148 0,60 -17,108 -50,143 -36,37 -86,56 -151,56 -69,0 -120,-19 -156,-57 -30,-32 -45,-78 -45,-137 0,-62 17,-113 51,-151 33,-37 85,-56 154,-57zm-5 66c-38,0 -67,12 -88,35 -20,24 -30,58 -30,102 0,42 8,73 25,94 21,26 52,40 92,40 81,0 121,-44 121,-132 0,-45 -10,-79 -31,-103 -20,-24 -50,-36 -89,-36z"/>
   <path class="fil0" d="M2081 240c22,0 39,16 40,37l0 0 0 2 0 0 0 0 0 315 0 1 0 0 0 0 0 0c-1,22 -18,39 -40,39 -21,0 -38,-17 -39,-39l0 0 0 0 0 0 0 -1 0 -315 0 0 0 0 0 -2 0 0c1,-21 18,-37 39,-37z"/>
   <path class="fil0" d="M907 240l39 0 0 0 28 0c32,0 57,3 75,7 18,4 33,12 46,23 11,11 20,25 24,41 5,16 8,39 8,69l0 1 0 1c0,20 -17,36 -37,36 -21,0 -37,-16 -37,-36l0 0 0 -2c0,-29 -5,-48 -15,-58 -10,-10 -28,-15 -56,-15l-31 0 0 287 0 0 0 1c0,21 -17,39 -39,39 -22,0 -39,-18 -39,-39l0 -1 0 -316 0 0 0 -3c0,-19 15,-35 34,-35z"/>
   <path class="fil0" d="M1896 240l-38 0 0 0 -90 0c-42,0 -74,4 -97,11 -23,7 -43,20 -59,39 -34,38 -50,90 -50,156 0,80 25,135 77,165 16,10 32,16 47,19 15,3 43,4 82,4l85 0c0,23 -2,38 -5,46 -4,7 -9,11 -17,14 -9,2 -24,3 -47,3l-148 0 -1 0 0 0 -1 0 0 0c-16,1 -30,14 -30,31 0,17 14,31 30,31l0 0 139 0c40,0 71,-2 90,-7 21,-6 36,-15 48,-28 9,-11 15,-23 17,-36 2,-13 3,-46 3,-99l0 -308 0 0 0 -6c0,-19 -15,-35 -35,-35zm-43 63l-79 0c-33,0 -56,2 -70,7 -24,10 -41,32 -51,65 -6,23 -10,47 -10,71 0,40 9,71 28,95 9,12 20,20 33,24 13,4 32,7 57,7l92 0 0 -269z"/>
  </g>
  <path class="fil1" d="M376 99c5,4 5,10 5,11 -12,31 -25,72 -35,122 -9,43 -18,109 -16,175 2,139 47,258 66,304 2,7 0,15 -6,18 -6,4 -13,4 -19,0 -26,-23 -55,-54 -83,-92 -42,-56 -68,-110 -84,-153 0,0 -38,-99 -27,-276 0,-7 2,-13 6,-19 5,-7 11,-10 13,-11 17,-8 122,-66 165,-80 2,0 10,-3 15,1z"/>
  <path class="fil0" d="M445 704c-13,3 -20,-9 -24,-23l0 0 0 0c-9,-27 -18,-57 -26,-90 -9,-38 -16,-73 -20,-105 0,0 -30,-277 95,-467 6,-8 14,-12 14,-12 6,-4 13,-6 17,-7 99,0 198,0 297,0 9,0 18,0 26,0 5,1 10,4 11,9 3,7 -1,13 -1,13 -35,29 -80,69 -136,127 -76,86 -122,169 -148,224 -57,118 -79,227 -88,306l0 0 0 0c-1,12 -3,22 -17,25z"/>
  <path class="fil2" d="M132 286l0 0c-2,54 1,168 69,288 45,81 102,133 140,163 7,5 11,12 8,18 -3,5 -9,8 -16,6 -68,-20 -118,-48 -150,-70 0,0 -118,-78 -181,-235 -3,-5 -2,-11 -2,-11 1,-4 3,-8 3,-9 3,-3 15,-21 34,-48 20,-27 47,-65 78,-107 1,-3 4,-4 9,-4 4,0 8,5 8,9z"/>
 </g>
</svg>
